<?xml version="1.0" encoding="UTF-8"?>
<svg version="1.1" viewBox="0 0 1662.1 1093" xmlns="http://www.w3.org/2000/svg">
 <defs>
  <linearGradient id="linear-gradient" x1="829.55" x2="829.55" y1="540.64" y2="614.07" gradientUnits="userSpaceOnUse">
   <stop stop-color="#fc3" stop-opacity=".3" offset="0"/>
   <stop stop-color="#02149a" stop-opacity="0" offset="1"/>
  </linearGradient>
  <linearGradient id="linear-gradient-2" x1="1033.1" x2="914.77" y1="502.29" y2="187.39" gradientUnits="userSpaceOnUse">
   <stop stop-color="#fff" stop-opacity=".3" offset="0"/>
   <stop stop-color="#fff" stop-opacity="0" offset="1"/>
  </linearGradient>
 </defs>
 <g style="isolation:isolate">
  <g data-name="Layer 1">
   <path fill="#02149a" stroke-width="0" d="m81.4 615.12 25.68-35.34h47.36c4.45 0 8.32 0.14 11.61 0.41-1.92-2.46-4.14-5.58-6.68-9.35s-4.97-7.29-7.29-10.59l-24.66-36.37-64.52 91.23h-50.34l88.15-124.31c2.88-3.97 6.51-7.53 10.89-10.69 4.38-3.15 9.93-4.72 16.64-4.72s11.82 1.47 16.13 4.42c4.32 2.94 7.98 6.61 10.99 10.99l85.89 124.31h-159.85zm342.53-60c0 41.51-28.56 62.26-85.68 62.26-16.58 0-30.82-1.3-42.74-3.9s-21.75-6.5-29.49-11.71-13.43-11.68-17.06-19.42-5.44-16.82-5.44-27.23v-77.47h42.33v77.47c0 5.07 0.68 9.32 2.05 12.74 1.37 3.43 3.94 6.2 7.71 8.32 3.77 2.13 9.07 3.63 15.93 4.52 6.85 0.89 15.75 1.34 26.71 1.34 8.22 0 15.07-0.48 20.55-1.44s9.86-2.53 13.15-4.73c3.29-2.19 5.65-5 7.09-8.42s2.16-7.53 2.16-12.33v-77.47h42.74v77.47zm199.93-77.47-27.53 35.76h-49.11v101.71h-42.54v-101.71h-64.52l27.54-35.76h156.16zm94.73-2.26c33.42 0 58.53 5.68 75.31 17.05s25.17 29.32 25.17 53.84-8.36 42.67-25.07 54.04-41.85 17.05-75.41 17.05-58.87-5.68-75.51-17.05c-16.65-11.37-24.97-29.38-24.97-54.04s8.36-42.46 25.07-53.84c16.71-11.37 41.85-17.05 75.41-17.05zm0 106.24c10.68 0 19.73-0.45 27.12-1.34 7.4-0.89 13.39-2.64 17.98-5.24s7.91-6.2 9.97-10.79c2.05-4.59 3.08-10.58 3.08-17.98s-1.03-13.39-3.08-17.98c-2.06-4.59-5.38-8.15-9.97-10.68s-10.58-4.25-17.98-5.14-16.44-1.34-27.12-1.34-19.73 0.45-27.12 1.34c-7.4 0.89-13.39 2.61-17.98 5.14s-7.91 6.09-9.96 10.68c-2.06 4.59-3.09 10.58-3.09 17.98s1.03 13.39 3.09 17.98c2.05 4.59 5.37 8.19 9.96 10.79s10.58 4.35 17.98 5.24 16.44 1.34 27.12 1.34zm216.17-52.81c3.01 5.34 5.65 10.04 7.91 14.07 2.26 4.04 4.24 7.64 5.96 10.79 1.71 3.15 3.22 6.03 4.52 8.63l3.8 7.6c1.1-2.46 2.29-4.96 3.6-7.5 1.3-2.53 2.81-5.41 4.52-8.63s3.7-6.81 5.96-10.79c2.26-3.97 4.9-8.63 7.91-13.97l21.99-39.04c2.46-4.38 5.58-7.91 9.35-10.58s8.46-4.01 14.07-4.01 10.17 1.54 14.49 4.62c4.31 3.08 7.43 7.84 9.35 14.28l34.73 120.82h-42.33l-12.95-47.88c-2.19-7.81-4.04-14.66-5.55-20.55s-2.81-11.64-3.9-17.26c-2.33 4.8-4.93 10.1-7.81 15.92s-6.65 13.19-11.3 22.09l-18.49 34.52c-1.78 3.43-3.6 6.13-5.45 8.12s-3.73 3.53-5.65 4.62a18.02 18.02 0 0 1-6.17 2.16c-2.19 0.34-4.59 0.51-7.19 0.51s-5-0.17-7.19-0.51c-2.19-0.35-4.25-1.06-6.16-2.16-1.92-1.09-3.8-2.64-5.65-4.62s-3.66-4.69-5.44-8.12l-18.49-34.72c-2.47-4.66-4.66-8.84-6.58-12.54s-3.66-7.02-5.24-9.97c-1.58-2.94-2.95-5.65-4.11-8.11-1.17-2.47-2.3-4.86-3.39-7.19-1.1 5.48-2.4 11.2-3.9 17.16-1.51 5.96-3.29 12.84-5.34 20.65l-12.95 47.88h-41.71l35.55-120.82c1.92-6.44 5.07-11.2 9.45-14.28 4.38-3.09 9.24-4.62 14.59-4.62s10.1 1.3 13.87 3.9 6.88 6.16 9.35 10.68l21.99 38.84zm227.05 86.3 25.68-35.34h47.36c4.45 0 8.32 0.14 11.61 0.41-1.92-2.46-4.14-5.58-6.68-9.35s-4.97-7.29-7.29-10.59l-24.66-36.37-64.52 91.23h-50.34l88.15-124.31c2.88-3.97 6.51-7.53 10.89-10.69 4.38-3.15 9.93-4.72 16.64-4.72s11.82 1.47 16.13 4.42c4.32 2.94 7.98 6.61 10.99 10.99l85.89 124.31h-159.86zm306.99-137.47-27.54 35.76h-49.11v101.71h-42.54v-101.71h-64.52l27.54-35.76h156.17zm177.74 102.13-27.33 35.34h-132.33v-137.47h159.25l-27.54 35.76h-88.97v16.44h108.9l-24.45 31.23h-84.45v18.7h116.92z"/>
   <path fill="#02149a" stroke-width="0" d="M184.96 541.04h-40.42l11.32 16.68c2.37 3.34 4.78 6.89 7.37 10.66 2.46 3.69 4.65 6.76 6.49 9.13l6.14 7.86-9.96-.79c-3.2-.26-7.02-.39-11.28-.39h-45.11L90.2 610.74h142.89l-48.14-69.69Zm-114.28 0-49.41 69.69h39.58l49.28-69.69H70.68Zm438.59 0v69.69h33.75v-69.69h-33.75Zm756.1 0H1225l11.28 16.68c2.37 3.34 4.83 6.89 7.37 10.66 2.46 3.69 4.65 6.76 6.49 9.13l6.14 7.86-9.96-.79c-3.2-.26-6.98-.39-11.28-.39h-45.11l-19.31 26.55h142.89l-48.14-69.69Zm-114.28 0-49.41 69.69h39.58l49.33-69.69h-39.5Zm203.15 0v69.69h33.75v-69.69h-33.75Zm171.2 43.14v-27.47h86.72l12.24-15.67h-132.93v69.69h125.78l20.58-26.55h-112.39ZM385.78 541.04v14.09c0 5.35-.83 10.09-2.5 14-1.76 4.26-4.7 7.72-8.69 10.4-3.77 2.5-8.78 4.34-14.83 5.4-5.71 1.01-12.86 1.49-21.28 1.49-11.1 0-20.27-.44-27.3-1.36-7.46-.97-13.21-2.63-17.51-5.05-4.65-2.63-7.9-6.14-9.61-10.53-1.58-3.91-2.37-8.73-2.37-14.35v-14.09h-33.57v14.09c0 9.7 1.71 18.26 5.05 25.37 3.25 6.98 8.47 12.9 15.54 17.64 7.24 4.87 16.63 8.6 27.96 11.06 11.54 2.5 25.63 3.82 41.82 3.82 54.68 0 81.28-18.96 81.28-57.88v-14.09H385.8Zm428.98 0h-33.57c.13 1.67.18 3.42.18 5.22 0 7.99-1.18 14.66-3.47 19.79-2.46 5.44-6.41 9.74-11.85 12.81-5.05 2.9-11.67 4.83-19.62 5.79-7.5.88-16.81 1.36-27.65 1.36s-20.1-.48-27.65-1.36c-7.94-.97-14.53-2.9-19.62-5.79-5.4-3.07-9.35-7.37-11.8-12.81-2.28-5.13-3.47-11.76-3.47-19.79 0-1.8.04-3.55.18-5.22h-33.57c-.09 1.67-.13 3.42-.13 5.22 0 23.35 7.55 39.85 23.04 50.42 15.84 10.84 40.42 16.33 73.03 16.33s57.05-5.49 72.98-16.33c15.58-10.58 23.13-27.08 23.13-50.42 0-1.8-.04-3.55-.13-5.22Zm242.51 0h-31.86c.35 1.54.75 3.03 1.14 4.56 1.49 5.88 3.34 12.68 5.53 20.49l12.07 44.63h33.13l-20.01-69.69Zm-82.24 4.13c-2.19 3.95-4.17 7.5-5.88 10.66-1.71 3.2-3.2 6.06-4.48 8.6-1.27 2.46-2.46 4.87-3.51 7.28l-3.77 8.47-7.94-15.89c-1.27-2.59-2.77-5.4-4.48-8.51-1.71-3.16-3.69-6.71-5.92-10.75-.7-1.27-1.45-2.59-2.24-3.99H904.6c.26.53.57 1.05.88 1.62 1.58 2.98 3.34 6.32 5.22 10.01 1.93 3.69 4.12 7.86 6.58 12.51l18.52 34.76c1.58 3.07 3.16 5.49 4.74 7.15 1.54 1.67 3.12 2.94 4.65 3.82 1.45.83 2.94 1.36 4.61 1.62 1.98.31 4.17.48 6.54.48s4.56-.18 6.5-.48c1.71-.26 3.25-.79 4.7-1.62 1.54-.88 3.07-2.15 4.61-3.82 1.58-1.67 3.16-4.08 4.78-7.2l18.48-34.49c4.65-8.86 8.38-16.19 11.28-21.99.39-.79.79-1.62 1.18-2.37h-30.46c-.83 1.45-1.62 2.81-2.37 4.13Zm-138.99 65.56h32.48l12.07-44.59c2.06-7.81 3.82-14.7 5.35-20.63.39-1.49.75-2.98 1.1-4.48h-30.5l-20.49 69.69Z" />
   <path class="cls-2" d="M1126.83 677.61c-.84 1.89-1.76 3.73-2.68 5.58-36.25 74.47-99.97 133.23-177.87 162.99-21.81 8.42-44.8 14.48-68.59 17.99-2.63.44-5.3.79-8.02 1.1h-.01a338.343 338.343 0 0 1-30.63 2.32c-.27 0-.48 0-.7.05h-.36c-1.71.04-3.42.04-5.17.04-.27.04-.57.04-.84.04h-2.41c-1.32 0-2.63 0-3.95-.04-12.24-.13-24.31-.97-36.16-2.41h-.03c-1.05-.14-2.09-.27-3.09-.4a327.745 327.745 0 0 1-61.39-14.26c-85.39-28.85-155.12-92-192.71-173h-14.07c16.99 38.51 40.78 73.22 70.78 103.18 31.24 31.24 67.62 55.78 108.13 72.93a338.3 338.3 0 0 0 91.59 24.32h.04c13.47 1.62 27.08 2.41 40.86 2.41h2.41c.19 0 .38 0 .57-.01.19 0 .37-.01.57-.03.84 0 1.68 0 2.52-.01.85 0 1.7-.02 2.53-.04.66-.04 1.32-.04 1.93-.09 10.23-.3 20.32-1.05 30.33-2.23h.04c31.51-3.78 62.18-11.9 91.54-24.32 40.55-17.15 76.94-41.69 108.18-72.93 29.97-29.98 53.72-64.65 70.74-103.18h-14.08Zm16.28-269.93c-17.16-40.51-41.69-76.94-72.94-108.18-31.24-31.25-67.63-55.78-108.18-72.94-33.95-14.35-69.62-22.99-106.3-25.72h-.03c-8.65-.7-17.33-1.01-26.11-1.01-7.86 0-15.62.27-23.39.84h-.01c-37.66 2.5-74.25 11.19-109.09 25.89-40.51 17.16-76.89 41.69-108.13 72.94-31.29 31.24-55.83 67.67-72.94 108.18-1.09 2.57-2.14 5.16-3.16 7.75h13.82c36.18-87.65 109.38-156.26 200.03-186.32 19.4-6.45 39.59-11.11 60.39-13.78 5.4-.75 10.87-1.32 16.4-1.72h.01c7.29-.61 14.66-.92 22.12-1 1.32-.05 2.63-.05 3.95-.05 2.94 0 5.88.05 8.78.09 6.71.22 13.34.57 19.92 1.18h.02c6.31.53 12.54 1.23 18.67 2.15 23.4 3.43 46 9.31 67.5 17.43 83.95 31.51 151.62 96.54 186.64 178.74.44 1.1.93 2.19 1.36 3.28s13.83.01 13.83.01c-1.01-2.6-2.06-5.18-3.16-7.76Z"/>
   <path class="cls-2" d="M964.5 386.87c-1.01-4.65-2.07-9.21-3.21-13.73-6.27-25.72-14.09-49.68-23.26-71.23-1.05-2.46-2.1-4.91-3.2-7.28-2.37-5.23-4.74-10.18-7.24-14.97-13.69-26.42-29.23-46.69-45.95-60.08-1.58-1.27-3.12-2.45-4.7-3.6-6.39-4.55-12.96-8.15-19.62-10.73-.01-.01-.03-.01-.04-.02-8.29-3.24-16.72-4.91-25.32-4.96h-1.05c-9.04.09-17.95 1.93-26.6 5.53h-.03c-5.87 2.37-11.6 5.58-17.21 9.52a95.483 95.483 0 0 0-6.15 4.65c-16.63 13.43-32.08 33.66-45.64 59.95-2.45 4.78-4.87 9.78-7.24 14.96-1.01 2.28-2.06 4.65-3.07 7.02-6.7 15.79-12.72 32.84-17.89 50.95 0 .02-.01.03-.01.05-1.94 6.67-3.74 13.51-5.45 20.45-1.09 4.52-2.19 9.12-3.2 13.78-.18.83-.35 1.66-.53 2.5v.02c-1.79 8.42-3.45 17.01-4.9 25.77s12.9.01 12.9.01c1.4-8.24 2.97-16.34 4.69-24.26 0-.02.01-.03.01-.05.52-2.37 1.05-4.7 1.58-7.02 1.05-4.61 2.15-9.13 3.29-13.61 1.14-4.37 2.31-8.71 3.54-13 0-.01.01-.02.01-.03 5.14-17.99 11.02-34.93 17.69-50.56 2.37-5.52 4.78-10.83 7.28-15.93 2.5-5.09 5.05-9.96 7.68-14.61 8.95-15.71 18.61-28.74 28.92-38.97 7.77-7.72 15.7-13.6 23.82-17.68 0-.01.01-.01.01-.01 6.98-3.51 14.05-5.61 21.2-6.36 1.35-.16 2.72-.28 4.08-.33.45-.02.91-.02 1.36-.02h.92c2.11 0 4.26.18 6.37.44 6.45.75 12.81 2.68 19.13 5.7.02.01.03.02.05.02 8.45 4.09 16.78 10.14 24.92 18.24 10.27 10.18 19.92 23.17 28.79 38.8 2.68 4.65 5.22 9.52 7.72 14.61 2.55 5.13 5.01 10.49 7.38 16.1 8.25 19.27 15.31 40.55 21.19 63.37 1.14 4.48 2.28 9 3.34 13.61 2.32 10.27 4.43 20.75 6.32 31.54s12.9.01 12.9.01c-1.67-9.71-3.51-19.26-5.57-28.57Zm-9.62 290.74c-1.75 9.04-3.68 17.91-5.79 26.55-1.14 4.61-2.28 9.18-3.51 13.65-5.48 20.06-11.94 38.84-19.26 56.04a309.93 309.93 0 0 1-10.05 21.46c-2.68 5.14-5.4 10.01-8.21 14.66-7.99 13.25-16.59 24.4-25.63 33.35-5.18 5.14-10.44 9.48-15.8 12.99-.01.01-.02.01-.03.02-9.25 6.14-18.72 9.81-28.27 10.95-1.85.27-3.69.4-5.53.4-.27.04-.57.04-.84.04h-1.01c-.45 0-.9 0-1.34-.02-1.34-.05-2.66-.17-4.01-.33-10.88-1.14-21.64-5.48-32.08-13.03 0 0-.01 0-.01-.01-4.35-3.12-8.68-6.79-12.94-11.01-9.08-8.99-17.68-20.23-25.71-33.52-2.81-4.66-5.53-9.53-8.17-14.66-3.46-6.67-6.8-13.78-10-21.29-7.37-17.24-13.78-36.11-19.27-56.26-1.23-4.47-2.41-9.04-3.51-13.65-2.11-8.55-4.04-17.33-5.75-26.33h-12.99c1.49 7.9 3.16 15.71 4.92 23.35 1.09 4.65 2.19 9.26 3.38 13.78 5.97 23.04 13.16 44.54 21.5 64.12 1.84 4.3 3.69 8.42 5.62 12.46a266 266 0 0 0 7.63 15.01c12.86 23.7 27.3 42 42.79 54.46 1.76 1.49 3.51 2.81 5.31 4.08.91.7 1.83 1.31 2.79 1.91 0 0 0 .02.02.02 13.34 8.87 27.34 13.52 41.78 13.65h1.05c.19 0 .38 0 .57-.01.19 0 .37-.01.57-.03 12.77-.27 25.23-4.13 37.21-11.37h.01c2.46-1.45 4.91-3.07 7.37-4.87 1.27-.92 2.59-1.93 3.86-2.99 15.58-12.41 30.15-30.8 43.14-54.63 2.64-4.79 5.14-9.74 7.59-14.97 1.98-4.08 3.87-8.34 5.75-12.72 8.3-19.49 15.49-40.95 21.46-63.9 1.14-4.52 2.28-9.13 3.38-13.78 1.8-7.72 3.47-15.58 4.96-23.57h-12.95Z"/>
   <path class="cls-2" d="M1074.25 414.17c-.57-1.89-1.14-3.77-1.75-5.66-7.16-22.25-16.06-43.23-26.55-62.84 0-.01-.01-.01-.01-.02-.13-.26-.3-.57-.43-.82a336.58 336.58 0 0 0-14.48-24.35c-4.48-6.85-9.13-13.48-14.05-19.93-.88-1.14-1.75-2.28-2.63-3.38v-.06c-20.63-26.28-44.06-47.64-69.9-63.7-3.38-2.15-6.85-4.17-10.31-6.1-24.96-13.87-51.12-22.43-78.05-25.59h-.02c-7.95-.96-16.02-1.45-24.1-1.45h-1.05c-8.5.05-16.97.62-25.35 1.72h-.02c-26.11 3.42-51.47 11.89-75.7 25.32-1.05.57-2.11 1.18-3.16 1.8-29.8 17.11-56.65 41.12-79.69 71.44-1.72 2.23-3.42 4.51-5.08 6.83 0 .01-.01.01-.01.02-3.08 4.25-6.1 8.64-8.96 13.08-3.46 5.31-6.8 10.7-10 16.28-.01.01-.01.02-.02.03-1.48 2.62-2.98 5.29-4.41 8-10.76 19.83-19.8 41.16-27.08 63.72-.62 1.89-1.23 3.82-1.8 5.7-.13.41-.25.81-.37 1.22h13.27c.99-3.18 2.02-6.32 3.07-9.42 7.38-21.55 16.5-42 27.34-61.13 2.86-5.01 5.84-9.92 8.91-14.75 3.69-5.79 7.51-11.41 11.59-16.9 0 0 0-.01.01-.01 1.17-1.66 2.4-3.32 3.63-4.94.26-.36.53-.71.79-1.01 34.41-44.72 76.89-74.65 123.05-87.29 7.46-2.11 15-3.73 22.64-4.83h.01c7.28-1.14 14.66-1.8 22.03-2.06 1.38-.04 2.73-.07 4.08-.07.45-.02.91-.02 1.36-.02h.92c2.11 0 4.22.04 6.37.09 6.67.22 13.29.79 19.88 1.75 7.9 1.06 15.71 2.64 23.43 4.74 45.2 12.03 86.98 40.64 121.08 83.43.01.01.02.03.03.04 1.13 1.39 2.22 2.78 3.31 4.22.26.3.52.65.78 1.01a303.73 303.73 0 0 1 15.23 21.85c4.92 7.68 9.48 15.58 13.78 23.7 8.74 16.51 16.24 33.92 22.43 52.13 1.1 3.12 2.15 6.27 3.11 9.47s13.26.01 13.26.01c-.09-.45-.22-.83-.4-1.27Zm-3.29 261.16c-1.45.79-2.9 1.54-4.39 2.28h-9.26c-.61 1.85-1.27 3.69-1.97 5.49-6.27 17.1-13.73 33.5-22.23 48.98-.01.01-.01.03-.02.04-5 9.04-10.31 17.73-16.02 26.11-3.29 4.87-6.67 9.61-10.23 14.26a132.38 132.38 0 0 1-4.08 5.18c0 .01-.01.01-.02.02-.86 1.18-1.83 2.36-2.79 3.49-33.61 40.9-74.34 68.29-118.4 80-4.02 1.1-8.1 2.07-12.17 2.85h-.03c-9.96 1.97-20.1 3.16-30.32 3.55-.27 0-.48 0-.7.05h-.36c-2.01.04-3.99.08-6.01.08h-1.01c-.45 0-.9 0-1.34-.02-1.34 0-2.66-.03-4.01-.06-12.03-.4-23.92-1.94-35.59-4.57-.02 0-.03-.01-.05-.01-3.01-.66-5.98-1.39-8.95-2.27-43.53-11.94-83.78-39.15-117.04-79.65-2.37-2.81-4.65-5.71-6.89-8.65-3.55-4.65-6.93-9.39-10.23-14.26-15.53-22.86-28.34-48.1-38.31-75.13-.65-1.82-1.3-3.65-1.94-5.49h-13.37c7.92 23.51 17.82 45.61 29.58 66.05 4.78 8.43 9.87 16.54 15.36 24.4 2.85 4.13 5.79 8.16 8.82 12.16 22.6 29.66 48.84 53.32 77.94 70.39 1.62.96 3.24 1.89 4.91 2.81 18.91 10.48 38.56 17.98 58.65 22.32.01.01.02.01.03.01 13.47 2.99 27.16 4.52 41.03 4.7h2.41c.19 0 .38 0 .57-.01.81 0 1.62-.02 2.43-.03.22 0 .44 0 .66-.01.85 0 1.7-.02 2.53-.04.66-.04 1.32-.04 1.93-.09 10.27-.39 20.4-1.58 30.45-3.51h.01c21.81-4.17 43.09-11.98 63.59-23.34 4.12-2.28 8.16-4.7 12.15-7.24 25.41-16.11 48.44-37.38 68.72-63.41h.01c.66-.84 1.31-1.68 1.97-2.55 3.03-4 5.97-8.03 8.82-12.16 5.45-7.86 10.54-15.97 15.32-24.4.48-.75.92-1.49 1.32-2.28.01-.02.02-.03.03-.05 11.18-19.78 20.6-41.09 28.23-63.72.31-.87.61-1.75.88-2.63-.22.13-.4.22-.62.35Z"/>
   <path class="cls-2" d="M1036.51 677.61c-22.69 9.61-47.39 17.51-73.64 23.57-4.56 1.05-9.13 2.02-13.78 2.98-21.28 4.3-43.44 7.38-66.22 9.26a614.379 614.379 0 0 1-44.54 2.02c-2.11.05-4.26.05-6.37.05s-4.25 0-6.36-.05c-16.68-.17-33.13-.96-49.33-2.46-21.41-1.88-42.26-4.91-62.36-9.04-4.65-.92-9.26-1.93-13.82-2.98-25.86-6.04-50.31-13.85-72.7-23.35h-30c3.65 1.88 7.37 3.71 11.15 5.49 28.48 13.47 60.52 24.09 94.93 31.64 4.6 1.01 9.26 1.97 13.95 2.85 19.31 3.73 39.32 6.5 59.77 8.25 15.89 1.41 32.04 2.2 48.41 2.33 2.11.04 4.26.04 6.36.04s4.26 0 6.37-.04c14.65-.13 29.18-.79 43.49-1.93 21.85-1.67 43.18-4.52 63.76-8.43 4.7-.92 9.3-1.84 13.91-2.85 34.76-7.55 67.1-18.26 95.85-31.86 3.82-1.76 7.55-3.6 11.23-5.49h-30.06Zm37.74-263.44c-1.09-.61-2.19-1.23-3.29-1.8-4.12-2.19-8.38-4.34-12.68-6.41-28.97-13.95-61.7-25.01-96.99-32.82-4.56-1.01-9.13-1.98-13.78-2.86-34.62-6.71-71.4-10.4-109.18-10.75-2.11-.04-4.26-.04-6.37-.04s-4.25 0-6.36.04c-34.5.31-68.2 3.43-100.15 9.09h-.01c-3.33.57-6.66 1.23-9.99 1.88-4.65.88-9.26 1.85-13.83 2.86-4.74 1.05-9.43 2.19-14.08 3.33l-.02.01c-29.53 7.5-57.13 17.33-81.92 29.31-4.3 2.06-8.47 4.17-12.59 6.36-1.14.62-2.28 1.23-3.38 1.84-.74.4-1.47.81-2.2 1.22h27.93c24.18-11.29 51.03-20.48 79.7-27.46h.02c1.1-.31 2.24-.57 3.34-.83 4.56-1.06 9.13-2.07 13.74-3.03 3.64-.75 7.28-1.49 10.97-2.15h.04c32.56-6.06 67.01-9.35 102.43-9.7 2.11-.04 4.26-.04 6.36-.04s4.26 0 6.37.04c39.1.39 77.01 4.39 112.52 11.63 4.61.96 9.13 1.97 13.65 2.98 30.35 7.16 58.66 16.72 84.1 28.56.01 0 .01.01.02.01h26.03c-.09-.45-.22-.83-.4-1.27Z"/>
   <path class="cls-2" d="M1112.3 677.61c-18.56 24.48-41.99 46.38-69.23 64.76-.01.01-.01.02-.02.02-.61.44-1.27.88-1.93 1.27-7.72 5.18-15.76 10.01-24.05 14.57-7.07 3.91-14.35 7.55-21.81 11.02-.01 0-.01.01-.02.01-19.78 9.12-40.85 16.62-62.96 22.32-5.26 1.36-10.62 2.64-16.01 3.73-24.93 5.36-51.04 8.34-77.94 8.74-2.11.08-4.22.08-6.37.08s-4.25 0-6.36-.08c-27.25-.4-53.67-3.47-78.91-8.91-5.44-1.19-10.79-2.46-16.1-3.82-30.06-7.86-58.19-19.05-83.74-33.09-8.29-4.56-16.32-9.39-24.04-14.57-28.07-18.64-52.18-40.98-71.17-66.05h-15.89c15.24 21.73 34.07 41.64 56.29 59.42 14.35 11.55 29.71 21.86 46.13 31.03 8.33 4.7 16.93 9.08 25.8 13.08 11.59 5.35 23.65 10.14 36.07 14.35 12.51 4.26 25.24 7.85 38.18 10.84 5.53 1.27 11.06 2.46 16.64 3.47 23.08 4.3 46.73 6.67 70.74 7.02 2.11.04 4.26.04 6.36.04s4.26 0 6.37-.04c23.69-.35 47-2.64 69.73-6.85 5.57-1.01 11.15-2.15 16.63-3.42 13.3-2.99 26.42-6.72 39.24-11.06 12.41-4.21 24.44-9 36.02-14.31 1.57-.7 3.2-1.44 4.72-2.18.01 0 .01-.01.02-.01 7.2-3.43 14.27-7.07 21.11-10.93 7.07-3.95 13.96-8.12 20.67-12.55.01 0 .01-.01.02-.01 8.81-5.75 17.33-11.93 25.44-18.47 20.32-16.28 37.78-34.27 52.22-53.84 1.4-1.85 2.72-3.69 4.04-5.58h-15.89Zm20.92-262.18c-.69-1.09-1.39-2.18-2.14-3.28-15.71-23.35-35.5-44.67-59.15-63.63a322.76 322.76 0 0 0-20.12-14.9c-.01-.01-.02-.01-.03-.02-6.71-4.61-13.64-9-20.75-13.12-8.08-4.74-16.42-9.13-24.97-13.21-1.71-.87-3.49-1.71-5.23-2.49-.01-.01-.03-.01-.04-.02-11.85-5.48-24.14-10.35-36.86-14.7-11.9-4.03-24.01-7.5-36.34-10.4-5.44-1.27-10.89-2.46-16.37-3.46-23.74-4.61-48.1-7.11-72.89-7.47-2.11-.04-4.26-.04-6.37-.04s-4.25 0-6.36.04c-25.15.36-49.85 2.94-73.95 7.64-5.48 1.05-10.97 2.24-16.37 3.56a402.462 402.462 0 0 0-35.24 10.13c-14.61 4.96-28.7 10.71-42.17 17.21-2.4 1.14-4.81 2.31-7.21 3.54-.01 0-.02 0-.03.01-6.01 3.03-11.89 6.28-17.69 9.66-4.34 2.5-8.64 5.13-12.81 7.85-.01 0-.01.01-.02.01a330.874 330.874 0 0 0-28.07 20.18c-24.74 19.83-45.28 42.27-61.31 66.91h15.46c18.8-26.8 43.36-50.7 72.32-70.64 2.31-1.63 4.64-3.15 7-4.68.01-.01.01-.02.02-.02 5.31-3.46 10.75-6.8 16.32-9.96 5.31-3.03 10.71-5.92 16.24-8.73 0 0 0-.01.02-.01 21.71-10.93 45.19-19.83 69.93-26.5 5.27-1.4 10.58-2.68 15.93-3.91 26.03-5.79 53.41-9.08 81.63-9.47 2.11-.09 4.21-.09 6.36-.09s4.26 0 6.37.09c27.86.39 54.85 3.59 80.61 9.3 5.36 1.14 10.67 2.46 15.89 3.82 20.58 5.44 40.29 12.5 58.85 20.97 9.79 4.44 19.26 9.31 28.39 14.53 8.12 4.61 15.93 9.52 23.44 14.7.22.18.48.31.7.48 28.61 19.84 52.92 43.53 71.52 70.12.01 0 .01.01.01.01h15.49s0-.01-.01-.01Z"/>
   <path class="cls-2" d="m825.6 206.64h12.73v208.81h-12.73zm0 470.98h12.73v196.47h-12.73z"/>
   <circle fill="#fc3" cx="830.87" cy="212.56" r="27.43"/>
   <circle fill="#fc3" cx="1019" cy="755.64" r="27.43"/>
   <circle fill="#fc3" cx="829.54" cy="874.09" r="41.08"/>
   <path fill="#fc3" d="M776.18 715.49c0 3.55.35 6.98 1.01 10.36 4.56 23.26 24.22 41.08 48.41 42.83 1.32.13 2.63.18 3.95.18 2.98 0 5.92-.26 8.78-.75 21.81-3.6 39.1-20.41 43.49-41.87.75-3.47 1.1-7.07 1.1-10.75 0-.7 0-1.36-.04-2.06-.53-13.96-6.41-26.55-15.67-35.81H791.9c-9.17 9.17-15.01 21.59-15.62 35.37-.09.83-.09 1.67-.09 2.5Z"/>
   <circle fill="#fc3" cx="639.42" cy="326.61" r="19.39"/>
   <circle fill="#fc3" cx="706.39" cy="372.24" r="19.39"/>
   <circle fill="#fc3" cx="1022.1" cy="326.61" r="30.5"/>
   <path class="cls-2" d="M838.21 546.53v.79c-.66-2.28-1.01-4.7-1.01-7.2 0-1.32.09-2.59.31-3.86 0-.4.09-.79.18-1.18.09.4.09.79.09 1.18.31 3.38.44 6.8.44 10.27Z"/>
   <path stroke-width="0" fill="#02149a"  d="M1175.62 677.62h175.12c-58.68 233.16-269.97 405.78-521.66 405.78-168.48 0-318.86-77.36-417.48-198.46 83.15 77.91 194.99 125.6 318 125.6 211.07 0 389.28-140.46 446.01-332.91ZM729.61 81.9c-122.97 0-234.78 47.65-317.91 125.5C510.32 86.34 660.67 9.04 829.09 9.04c251.91 0 463.34 172.93 521.81 406.4h-175.1C1119.26 222.68 940.9 81.9 729.62 81.9Z"/>
   <path d="m1337.3 415.44h-147.82c-57.08-199.9-241.6-346.69-459.82-346.69-64.5 0-127.35 12.82-185.4 37.2 83.81-54.19 182.21-83.77 284.87-83.77 244.14 0 449.86 167.37 508.18 393.25z" fill="url(#linear-gradient-2)" stroke-width="0"/>
   <path class="cls-2" d="M810.92 929.72c77.86 0 150.38-22.97 211.09-62.51-77.79 70.63-181.18 113.68-294.6 113.68-195.09 0-360.4-127.32-417.17-303.28h137.74c54.65 147.2 196.53 252.11 362.94 252.11ZM445.63 415.43H308.2c54.75-179.34 221.72-309.81 419.21-309.81 113.42 0 216.81 43.05 294.6 113.68-60.71-39.54-133.23-62.51-211.09-62.51-168.86 0-312.45 108.01-365.29 258.64Z"/>
  </g>
 </g>
</svg>
